ffmpeg version 6.1.1-3ubuntu5 Copyright (c) 2000-2023 the FFmpeg developers
  built with gcc 13 (Ubuntu 13.2.0-23ubuntu3)
  configuration: --prefix=/usr --extra-version=3ubuntu5 --toolchain=hardened --libdir=/usr/lib/x86_64-linux-gnu --incdir=/usr/include/x86_64-linux-gnu --arch=amd64 --enable-gpl --disable-stripping --disable-omx --enable-gnutls --enable-libaom --enable-libass --enable-libbs2b --enable-libcaca --enable-libcdio --enable-libcodec2 --enable-libdav1d --enable-libflite --enable-libfontconfig --enable-libfreetype --enable-libfribidi --enable-libglslang --enable-libgme --enable-libgsm --enable-libharfbuzz --enable-libmp3lame --enable-libmysofa --enable-libopenjpeg --enable-libopenmpt --enable-libopus --enable-librubberband --enable-libshine --enable-libsnappy --enable-libsoxr --enable-libspeex --enable-libtheora --enable-libtwolame --enable-libvidstab --enable-libvorbis --enable-libvpx --enable-libwebp --enable-libx265 --enable-libxml2 --enable-libxvid --enable-libzimg --enable-openal --enable-opencl --enable-opengl --disable-sndio --enable-libvpl --disable-libmfx --enable-libdc1394 --enable-libdrm --enable-libiec61883 --enable-chromaprint --enable-frei0r --enable-ladspa --enable-libbluray --enable-libjack --enable-libpulse --enable-librabbitmq --enable-librist --enable-libsrt --enable-libssh --enable-libsvtav1 --enable-libx264 --enable-libzmq --enable-libzvbi --enable-lv2 --enable-sdl2 --enable-libplacebo --enable-librav1e --enable-pocketsphinx --enable-librsvg --enable-libjxl --enable-shared
  libavutil      58. 29.100 / 58. 29.100
  libavcodec     60. 31.102 / 60. 31.102
  libavformat    60. 16.100 / 60. 16.100
  libavdevice    60.  3.100 / 60.  3.100
  libavfilter     9. 12.100 /  9. 12.100
  libswscale      7.  5.100 /  7.  5.100
  libswresample   4. 12.100 /  4. 12.100
  libpostproc    57.  3.100 / 57.  3.100
Input #0, video4linux2,v4l2, from '/dev/video0':
  Duration: N/A, start: 1252.095614, bitrate: 147456 kb/s
  Stream #0:0: Video: rawvideo (YUY2 / 0x32595559), yuyv422, 640x480, 147456 kb/s, 30 fps, 30 tbr, 1000k tbn
Stream mapping:
  Stream #0:0 -> #0:0 (rawvideo (native) -> h264 (libx264))
Press [q] to stop, [?] for help
[libx264 @ 0x5eaab46711c0] using cpu capabilities: MMX2 SSE2Fast SSSE3 SSE4.2 AVX FMA3 BMI2 AVX2
[libx264 @ 0x5eaab46711c0] profile Constrained Baseline, level 3.1, 4:2:0, 8-bit
Output #0, h264, to 'pipe:':
  Metadata:
    encoder         : Lavf60.16.100
  Stream #0:0: Video: h264, yuv420p(tv, progressive), 640x480, q=2-31, 30 fps, 30 tbn
    Metadata:
      encoder         : Lavc60.31.102 libx264
    Side data:
      cpb: bitrate max/min/avg: 0/0/0 buffer size: 0 vbv_delay: N/A
frame=    0 fps=0.0 q=20.0 size=       0kB time=00:00:00.00 bitrate=N/A speed=N/A    frame=   18 fps=0.0 q=24.0 size=     143kB time=00:00:00.60 bitrate=1949.5kbits/s dup=2 drop=0 speed= 1.2x    frame=   34 fps= 33 q=24.0 size=     279kB time=00:00:01.13 bitrate=2015.6kbits/s dup=2 drop=0 speed= 1.1x    frame=   49 fps= 32 q=24.0 size=     385kB time=00:00:01.63 bitrate=1929.1kbits/s dup=2 drop=0 speed=1.07x    frame=   64 fps= 31 q=24.0 size=     513kB time=00:00:02.13 bitrate=1968.6kbits/s dup=2 drop=0 speed=1.05x    frame=   80 fps= 31 q=24.0 size=     625kB time=00:00:02.66 bitrate=1920.9kbits/s dup=2 drop=0 speed=1.04x    frame=   96 fps= 31 q=24.0 size=     760kB time=00:00:03.20 bitrate=1946.7kbits/s dup=2 drop=0 speed=1.03x    frame=  113 fps= 31 q=23.0 size=     884kB time=00:00:03.73 bitrate=1938.9kbits/s dup=2 drop=0 speed=1.03x    frame=  128 fps= 31 q=23.0 size=    1015kB time=00:00:04.26 bitrate=1949.7kbits/s dup=2 drop=0 speed=1.02x    frame=  144 fps= 31 q=24.0 size=    1135kB time=00:00:04.80 bitrate=1936.4kbits/s dup=2 drop=0 speed=1.02x    frame=  160 fps= 31 q=24.0 size=    1266kB time=00:00:05.33 bitrate=1945.1kbits/s dup=2 drop=0 speed=1.02x    frame=  176 fps= 30 q=24.0 size=    1379kB time=00:00:05.86 bitrate=1925.3kbits/s dup=2 drop=0 speed=1.02x    frame=  192 fps= 30 q=24.0 size=    1508kB time=00:00:06.40 bitrate=1929.8kbits/s dup=2 drop=0 speed=1.02x    frame=  207 fps= 30 q=23.0 size=    1624kB time=00:00:06.90 bitrate=1927.5kbits/s dup=2 drop=0 speed=1.01x    frame=  223 fps= 30 q=23.0 size=    1754kB time=00:00:07.43 bitrate=1933.1kbits/s dup=2 drop=0 speed=1.01x    frame=  238 fps= 30 q=23.0 size=    1854kB time=00:00:07.93 bitrate=1914.2kbits/s dup=2 drop=0 speed=1.01x    frame=  254 fps= 30 q=23.0 size=    1986kB time=00:00:08.46 bitrate=1921.9kbits/s dup=2 drop=0 speed=1.01x    frame=  270 fps= 30 q=20.0 size=    2101kB time=00:00:09.00 bitrate=1912.3kbits/s dup=2 drop=0 speed=1.01x    [vost#0:0/libx264 @ 0x5eaab4670e00] Error submitting a packet to the muxer: Broken pipe
[out#0/h264 @ 0x5eaab466fb00] Error muxing a packet
[out#0/h264 @ 0x5eaab466fb00] Error writing trailer: Broken pipe
[out#0/h264 @ 0x5eaab466fb00] Error closing file: Broken pipe
[out#0/h264 @ 0x5eaab466fb00] video:2144kB audio:0kB subtitle:0kB other streams:0kB global headers:0kB muxing overhead: unknown
frame=  272 fps= 30 q=24.0 Lsize=    2139kB time=00:00:09.06 bitrate=1933.0kbits/s dup=2 drop=0 speed=1.01x    
[libx264 @ 0x5eaab46711c0] frame I:10    Avg QP:20.70  size: 29262
[libx264 @ 0x5eaab46711c0] frame P:263   Avg QP:23.65  size:  7257
[libx264 @ 0x5eaab46711c0] mb I  I16..4: 100.0%  0.0%  0.0%
[libx264 @ 0x5eaab46711c0] mb P  I16..4:  4.2%  0.0%  0.0%  P16..4: 52.2%  0.0%  0.0%  0.0%  0.0%    skip:43.6%
[libx264 @ 0x5eaab46711c0] coded y,uvDC,uvAC intra: 46.2% 60.8% 32.2% inter: 21.5% 25.4% 1.0%
[libx264 @ 0x5eaab46711c0] i16 v,h,dc,p: 26% 33% 18% 23%
[libx264 @ 0x5eaab46711c0] i8c dc,h,v,p: 45% 25% 22%  8%
[libx264 @ 0x5eaab46711c0] kb/s:1935.15
Conversion failed!
